<svg width="212" height="212" viewBox="0 0 212 212" fill="none" xmlns="http://www.w3.org/2000/svg">
<circle cx="106" cy="106" r="106" fill="#00A3AF"/>
<path d="M103.061 79.7316C106.682 79.7316 109.618 76.8815 109.618 73.3658C109.618 69.8501 106.682 67 103.061 67C99.4396 67 96.5039 69.8501 96.5039 73.3658C96.5039 76.8815 99.4396 79.7316 103.061 79.7316Z" fill="white"/>
<path d="M93.0802 145.084H119.92C120.206 145.084 120.481 144.974 120.684 144.777C120.886 144.58 121 144.313 121 144.035V138.754C121.002 138.489 120.899 138.232 120.712 138.038C120.525 137.844 120.268 137.726 119.995 137.71C117.858 137.591 113.057 136.46 113.057 128.689V89.9159C113.057 89.6378 112.943 89.371 112.741 89.1743C112.538 88.9777 112.263 88.8672 111.977 88.8672H93.0802C92.7937 88.8672 92.519 88.9777 92.3164 89.1743C92.1138 89.371 92 89.6378 92 89.9159V95.1969C91.9982 95.4627 92.1013 95.7191 92.2883 95.9134C92.4752 96.1076 92.7317 96.225 93.005 96.2413C95.1418 96.36 99.9428 97.4913 99.9428 105.263V128.689C99.9428 136.46 95.1418 137.591 93.005 137.71C92.7317 137.726 92.4752 137.844 92.2883 138.038C92.1014 138.232 91.9982 138.489 92.0001 138.754V144.035C92.0001 144.313 92.1139 144.58 92.3164 144.777C92.519 144.974 92.7937 145.084 93.0802 145.084V145.084Z" fill="white"/>
</svg>
