<svg width="212" height="212" viewBox="0 0 212 212" fill="none" xmlns="http://www.w3.org/2000/svg">
<circle cx="106" cy="106" r="106" fill="#00A3AF"/>
<path d="M113.493 85.0567C115.167 85.0567 116.86 85.4992 118.097 86.3635L127.213 94.4711C129.501 96.0722 133.06 98.9042 135.126 100.766L143.405 108.237L158.002 91.8126L135.315 70.7287L129.854 75.9331C129.854 75.9331 128.028 75.5319 126.758 74.9331L118.202 70.892C117.161 70.4 115.88 70.1621 114.575 70.1621C112.697 70.1621 110.764 70.6529 109.408 71.5827L96.172 80.596C93.8705 82.1741 93.3614 85.2636 95.0414 87.4634L95.8263 88.4921C96.9013 89.9001 98.663 90.6702 100.425 90.6702C101.414 90.6702 102.403 90.4265 103.271 89.9185L109.55 86.0267C110.658 85.3762 112.068 85.0567 113.493 85.0567Z" fill="white"/>
<path d="M100.458 128.809L99.4983 127.924C98.511 127.01 97.2359 126.556 95.9632 126.556C94.6076 126.556 93.2568 127.069 92.2541 128.091L92.2387 128.065C94.1826 126.084 94.1045 122.918 92.0658 121.032L91.108 120.146C90.1254 119.235 88.8598 118.785 87.5954 118.785C86.3168 118.785 85.0394 119.245 84.0532 120.151L85.9735 118.197C87.9198 116.218 87.844 113.051 85.8006 111.163L84.8452 110.277C83.8602 109.366 82.591 108.914 81.3231 108.914C80.0078 108.914 78.6925 109.399 77.6968 110.362C79.2974 108.375 79.1388 105.484 77.2209 103.709L76.2678 102.826C75.2781 101.91 74.003 101.457 72.7303 101.457C71.3748 101.457 70.0227 101.971 69.02 102.993L59.3949 112.789C57.4485 114.769 57.5255 117.934 59.5701 119.821L60.5243 120.705C61.5058 121.613 62.7678 122.063 64.0287 122.063C65.1901 122.063 66.3526 121.682 67.2974 120.933L64.7615 123.513C62.8175 125.495 62.8957 128.66 64.9332 130.548L65.8945 131.433C66.883 132.348 68.1569 132.802 69.4284 132.802C70.784 132.802 72.136 132.289 73.1388 131.267L75.1183 129.251C73.3578 131.238 73.4726 134.256 75.4497 136.086L76.4099 136.972C77.3973 137.886 78.6711 138.34 79.9427 138.34C81.2994 138.34 82.6514 137.825 83.6542 136.803L86.8365 133.609C84.8902 135.59 84.966 138.755 87.0082 140.644L87.966 141.529C88.9533 142.445 90.2284 142.898 91.4999 142.898C92.8555 142.898 94.2075 142.385 95.2114 141.362L100.631 135.845C102.575 133.864 102.496 130.698 100.458 128.809Z" fill="white"/>
<path d="M144.821 112.571L131.875 100.896C130.119 99.4534 128.123 97.9098 126.699 96.9133L126.53 96.795L126.376 96.6582L117.45 88.7207C116.861 88.3667 115.962 88.1506 115.055 88.1506C114.255 88.1506 113.483 88.3196 112.976 88.6069L106.743 92.4699L106.705 92.4929L106.667 92.5159C105.275 93.3319 103.656 93.7641 101.986 93.7641C99.0301 93.7641 96.2444 92.4285 94.5348 90.1931L93.7499 89.1644C92.3624 87.3472 91.8012 85.1209 92.1694 82.8958C92.5364 80.6718 93.7842 78.7305 95.695 77.4202L100.93 73.8538C98.5139 72.7768 94.5917 72.7309 92.0699 73.7802C92.0699 73.7802 89.2736 74.9721 88.3785 75.3399C86.2961 76.1973 83.3837 76.1847 83.3837 76.1847L76.5454 70L53 92.7101L63.6303 103.09L65.6891 100.995C67.3146 99.3408 69.6042 98.3903 71.9708 98.3903C74.2143 98.3903 76.3406 99.2144 77.9602 100.713L78.9132 101.596C80.212 102.798 81.0466 104.299 81.4006 105.886C83.3268 106.065 85.1264 106.859 86.5411 108.167L87.4894 109.047C89.1658 110.596 90.1201 112.689 90.1757 114.944C90.1875 115.413 90.1591 115.878 90.0952 116.332C91.0897 116.725 92.0072 117.297 92.8028 118.033L93.7582 118.918C95.1528 120.209 96.0064 121.845 96.3142 123.559C98.1422 123.784 99.8423 124.563 101.186 125.807L102.152 126.698C105.047 129.379 105.602 133.554 103.775 136.816L106.4 139.187C108.461 141.051 111.722 140.935 113.642 138.93L114.539 137.991C116.418 136.026 116.323 132.966 114.377 131.095L121.019 137.076C123.086 138.937 126.345 138.821 128.265 136.813L129.163 135.878C131.07 133.885 130.96 130.748 128.926 128.88L130.633 130.423C132.698 132.285 135.958 132.168 137.875 130.162L138.774 129.225C140.692 127.22 140.572 124.053 138.507 122.191L137.064 120.891C139.136 122.65 142.305 122.514 144.188 120.544L145.09 119.605C147.005 117.599 146.887 114.434 144.821 112.571Z" fill="white"/>
</svg>
