<svg width="212" height="212" viewBox="0 0 212 212" fill="none" xmlns="http://www.w3.org/2000/svg">
<circle cx="106" cy="106" r="106" fill="#00A3AF"/>
<path d="M117.859 129.887H93.8984V137.912C93.8973 144.334 99.2586 149.543 105.879 149.543C112.493 149.543 117.858 144.334 117.858 137.912V129.887H117.859Z" fill="white" stroke="white" stroke-width="2.3139" stroke-miterlimit="10" stroke-linecap="round" stroke-linejoin="round"/>
<path d="M97.0664 99.8427C92.5474 95.4566 92.5462 88.3468 97.0664 83.9574L90.9299 78C83.0234 85.6781 83.0234 98.1242 90.9299 105.801L97.0664 99.8427Z" stroke="white" stroke-width="2.3139" stroke-miterlimit="10" stroke-linecap="round" stroke-linejoin="round"/>
<path d="M105.926 63H105.921C89.9509 63 77 75.573 77 91.0786C77 98.8342 80.236 105.853 85.4735 110.935C89.5344 114.882 92.1098 119.706 93.2459 124.775H118.605C119.739 119.705 122.314 114.881 126.374 110.935C131.611 105.853 134.847 98.8342 134.847 91.0786C134.847 75.573 121.898 63 105.926 63ZM97.7453 99.0218L91.6088 104.981C83.7022 97.3045 83.7022 84.8584 91.6088 77.1803L97.7453 83.1377C93.2251 87.5248 93.2262 94.6358 97.7453 99.0218Z" fill="white"/>
</svg>
